<svg xmlns:xlink="http://www.w3.org/1999/xlink" width="1.389ex" height="2.176ex" style="font-size: 15px; vertical-align: -0.338ex;" viewBox="0 -791.3 598 936.9" role="img" focusable="false" xmlns="http://www.w3.org/2000/svg">
<defs>
<path stroke-width="1" id="E1-MJMAINB-69" d="M72 610Q72 649 98 672T159 695Q193 693 217 670T241 610Q241 572 217 549T157 525Q120 525 96 548T72 610ZM46 442L136 446L226 450H232V62H294V0H286Q271 3 171 3Q67 3 49 0H40V62H109V209Q109 358 108 362Q103 380 55 380H43V442H46Z"></path>
<path stroke-width="1" id="E1-MJMAIN-2018" d="M64 494Q64 548 86 597T131 670T160 694Q163 694 172 685T182 672Q182 669 170 656T144 625T116 573T101 501Q101 489 102 489T107 491T120 497T138 500Q163 500 180 483T198 440T181 397T139 379Q110 379 87 405T64 494Z"></path>
</defs>
<g stroke="currentColor" fill="currentColor" stroke-width="0" transform="matrix(1 0 0 -1 0 0)">
 <use xlink:href="#E1-MJMAINB-69" x="0" y="0"></use>
 <use xlink:href="#E1-MJMAIN-2018" x="319" y="0"></use>
</g>
</svg>